<svg width="64" height="64" viewBox="0 0 64 64" fill="none" xmlns="http://www.w3.org/2000/svg">
<rect x="12" y="15" width="45" height="33" rx="16.5" fill="#0A0A0A"/>
<path d="M32.0001 2.56C31.0851 2.56 30.1701 2.79 29.3551 3.25L7.79512 15.365C6.14512 16.29 5.12012 18.025 5.12012 19.885V44.115C5.12012 45.975 6.14512 47.71 7.79512 48.635L29.3551 60.75C30.1701 61.21 31.0851 61.44 32.0001 61.44C32.9151 61.44 33.8301 61.21 34.6451 60.75L56.2051 48.64C57.8551 47.71 58.8801 45.975 58.8801 44.115V19.885C58.8801 18.025 57.8551 16.29 56.2051 15.365L34.6451 3.25C33.8301 2.79 32.9151 2.56 32.0001 2.56ZM32.0001 16.64C36.8401 16.64 41.3151 18.885 44.2151 22.705L38.6051 25.955C36.9201 24.11 34.5251 23.04 32.0001 23.04C27.0601 23.04 23.0401 27.06 23.0401 32C23.0401 36.94 27.0601 40.96 32.0001 40.96C34.5251 40.96 36.9201 39.89 38.6051 38.045L44.2151 41.295C41.3151 45.115 36.8401 47.36 32.0001 47.36C23.5301 47.36 16.6401 40.47 16.6401 32C16.6401 23.53 23.5301 16.64 32.0001 16.64ZM44.8001 25.6H47.3601V28.16H49.9201V25.6H52.4801V28.16H55.0401V30.72H52.4801V33.28H55.0401V35.84H52.4801V38.4H49.9201V35.84H47.3601V38.4H44.8001V35.84H42.2401V33.28H44.8001V30.72H42.2401V28.16H44.8001V25.6ZM47.3601 30.72V33.28H49.9201V30.72H47.3601Z" fill="#FFB857"/>
</svg>
