<svg width="64" height="64" viewBox="0 0 64 64" fill="none" xmlns="http://www.w3.org/2000/svg">
<path d="M4.5 4.5H50.7C53.0339 4.5 55.2722 5.42714 56.9225 7.07746C58.5729 8.72778 59.5 10.9661 59.5 13.3V50.7C59.5 53.0339 58.5729 55.2722 56.9225 56.9225C55.2722 58.5729 53.0339 59.5 50.7 59.5H13.3C10.9661 59.5 8.72778 58.5729 7.07746 56.9225C5.42714 55.2722 4.5 53.0339 4.5 50.7V4.5Z" fill="#FFB857"/>
<path d="M24.2968 55.4683C20.701 55.465 18.4825 53.4401 18.525 49.7139V40.2871C18.525 38.3983 19.0781 36.9617 20.1843 35.9787C22.1711 34.0647 26.7807 33.9482 28.7266 36.0078C29.9258 37.0653 30.3781 39.2257 30.2706 41.2416H26.1436C26.175 40.4494 26.133 39.2497 25.6672 38.798C25.062 37.9789 23.4638 38.0752 23.0411 38.9278C22.7813 39.3903 22.6515 40.0749 22.6515 40.9807V49.1642C22.6515 50.88 23.2477 51.7478 24.4406 51.7668C24.9982 51.7668 25.422 51.5641 25.7103 51.1594C26.1128 50.6791 26.1755 49.6154 26.1431 48.8462H30.2701C30.5522 52.7689 28.2368 55.517 24.2962 55.4683H24.2968ZM37.3988 55.4683C33.4146 55.5232 31.6321 52.6883 31.7424 48.8462H35.6382C35.5302 50.5212 36.1056 52.0467 37.485 51.9403C38.1003 51.9403 38.5336 51.7478 38.7838 51.362C39.2597 50.6572 39.3487 48.6217 38.6685 47.834C38.1932 47.0755 36.4835 46.4059 35.5805 45.9547C34.2913 45.3378 33.3631 44.6056 32.7954 43.7569C31.5151 41.8736 31.6338 37.7399 33.4303 36.0649C35.1758 33.9981 39.7344 33.9029 41.4816 36.0218C42.5593 37.114 43.0301 39.2632 42.9388 41.241H39.1869C39.2188 40.4282 39.1421 39.1165 38.8264 38.6384C38.6053 38.2337 38.1865 38.031 37.5713 38.031C36.4746 38.031 35.9265 38.6866 35.9265 39.9971C35.9383 41.3888 36.4807 41.9598 37.7448 42.5415C39.3817 43.1774 41.4631 44.2635 42.2178 45.578C44.4683 49.5829 42.9243 55.7007 37.3983 55.4672L37.3988 55.4683ZM49.9814 55.4683C45.9971 55.5232 44.2147 52.6883 44.3249 48.8462H48.2207C48.1127 50.5212 48.6882 52.0467 50.0676 51.9403C50.6828 51.9403 51.1161 51.7478 51.3664 51.362C51.8422 50.6572 51.9312 48.6217 51.2511 47.834C50.7758 47.0755 49.0661 46.4059 48.1631 45.9547C46.8738 45.3378 45.9456 44.6056 45.378 43.7569C44.0977 41.8736 44.2163 37.7399 46.0128 36.0649C47.7583 33.9981 52.317 33.9029 54.0642 36.0218C55.1418 37.114 55.6126 39.2632 55.5214 41.241H51.7695C51.8014 40.4282 51.7247 39.1165 51.4089 38.6384C51.1878 38.2337 50.7691 38.031 50.1538 38.031C49.0571 38.031 48.5091 38.6866 48.5091 39.9971C48.5208 41.3888 49.0633 41.9598 50.3274 42.5415C51.9643 43.1774 54.0457 44.2635 54.8003 45.578C57.0508 49.5829 55.5068 55.7007 49.9808 55.4672L49.9814 55.4683Z" fill="#0A0A0A"/>
</svg>
