<svg width="64" height="65" viewBox="0 0 64 65" fill="none" xmlns="http://www.w3.org/2000/svg">
<path d="M57.4548 48.96C56.1106 48.96 54.821 48.322 54.0048 47.2549L45.321 35.8999L36.6372 47.2549C35.821 48.3227 34.5314 48.96 33.1872 48.96H30.6201L42.9643 32.8176L30.6838 16.759H33.2509C34.5951 16.759 35.8854 17.3963 36.7009 18.4634L45.3202 29.7353L53.9396 18.4634C54.7559 17.3956 56.0454 16.759 57.3896 16.759H59.9567L47.6777 32.8176L60.0219 48.96H57.4548Z" fill="#FFB857"/>
<path d="M59.2004 17.1335L47.2059 32.8176L59.2641 48.5856H57.4548C56.2185 48.5856 55.0532 48.0098 54.3021 47.0273L45.321 35.2836L36.34 47.0273C35.5889 48.0098 34.4229 48.5856 33.1873 48.5856H31.3773L43.4354 32.8176L31.4417 17.1335H33.2517C34.488 17.1335 35.6533 17.7094 36.4044 18.6919L45.321 30.3524L54.2377 18.6919C54.9888 17.7094 56.1541 17.1335 57.3904 17.1335H59.2004ZM60.7154 16.3846H59.1997H57.3897C55.9301 16.3846 54.529 17.0773 53.6416 18.2366L45.321 29.119L36.999 18.2366C36.1123 17.0773 34.7112 16.3846 33.2509 16.3846H31.4409H29.9252L30.8456 17.5881L42.4926 32.8176L30.7827 48.1311L29.8616 49.3345H31.3773H33.1873C34.6468 49.3345 36.0479 48.6418 36.9353 47.4826L45.321 36.5163L53.7068 47.4826C54.5934 48.6418 55.9946 49.3345 57.4548 49.3345H59.2648H60.7805L59.8602 48.1311L48.1487 32.8176L59.795 17.5881L60.7154 16.3846Z" fill="#FFB857"/>
<path d="M17.0087 50.4578C9.36958 50.4578 3.15479 44.0221 3.15479 36.1126V29.6058C3.15479 21.6963 9.36958 15.2614 17.0087 15.2614C24.6478 15.2614 30.8626 21.6963 30.8626 29.605V35.4798L6.89909 35.4806V36.1126C6.89909 41.9582 11.4342 46.7135 17.0087 46.7135C20.0873 46.7135 23.0692 45.1656 24.9863 42.573C25.8557 41.3966 27.1281 40.7219 28.4767 40.7219H29.7581L29.9108 40.8746L30.0112 41.0753L29.955 41.2273C27.9203 46.7487 22.718 50.4578 17.0087 50.4578ZM27.1183 31.7363V29.605C27.1183 23.7609 22.5832 19.0057 17.0087 19.0057C11.4342 19.0057 6.89909 23.7609 6.89909 29.6058V31.7363H27.1183Z" fill="#FFB857"/>
<path d="M17.0089 15.6358C24.4413 15.6358 30.4883 21.903 30.4883 29.605V35.1054L6.52482 35.1061V36.1126C6.52482 42.1649 11.2277 47.0879 17.0089 47.0879C20.2859 47.0879 23.3337 45.4382 25.2875 42.7954C26.0484 41.7665 27.1971 41.0963 28.4769 41.0963H29.6039V41.0978C27.624 46.4708 22.5587 50.0833 17.0089 50.0833C9.57642 50.0833 3.52938 43.8161 3.52938 36.1126V29.6058C3.52938 21.903 9.57642 15.6358 17.0089 15.6358ZM6.52482 32.1107H27.4929V29.605C27.4929 23.5542 22.7901 18.6312 17.0089 18.6312C11.2277 18.6312 6.52482 23.5542 6.52482 29.605V32.1107ZM17.0089 14.8869C9.16305 14.8869 2.78052 21.4896 2.78052 29.605V36.1118C2.78052 44.2287 9.16305 50.8322 17.0089 50.8322C22.8739 50.8322 28.2178 47.0242 30.3071 41.3569L30.6786 40.3489L29.6039 40.3474H28.4769C27.0084 40.3474 25.6267 41.0775 24.6854 42.3506C22.8387 44.8481 19.9691 46.339 17.0089 46.339C11.641 46.339 7.27368 41.7515 7.27368 36.1126V35.855L30.4883 35.8542H31.2372V35.1054V29.605C31.2372 21.4896 24.8547 14.8869 17.0089 14.8869ZM7.27368 31.3618V29.605C7.27368 23.9668 11.641 19.3801 17.0089 19.3801C22.3767 19.3801 26.744 23.9668 26.744 29.605V31.3618H7.27368Z" fill="#FFB857"/>
</svg>
