<svg width="64" height="65" viewBox="0 0 64 65" fill="none" xmlns="http://www.w3.org/2000/svg">
<path d="M33.5002 9.80957H26.0002C21.8581 9.80957 18.5002 13.1674 18.5002 17.3096C18.5002 21.4517 21.8581 24.8096 26.0002 24.8096M33.5002 9.80957V24.8096M33.5002 9.80957H41.0002C45.1425 9.80957 48.5002 13.1674 48.5002 17.3096C48.5002 21.4517 45.1425 24.8096 41.0002 24.8096M26.0002 24.8096H33.5002M26.0002 24.8096C21.8581 24.8096 18.5002 28.1673 18.5002 32.3096C18.5002 36.4518 21.8581 39.8096 26.0002 39.8096M33.5002 24.8096H41.0002M33.5002 24.8096V39.8096M41.0002 24.8096C45.1425 24.8096 48.5002 28.1673 48.5002 32.3096C48.5002 36.4518 45.1425 39.8096 41.0002 39.8096C36.858 39.8096 33.5002 36.4518 33.5002 32.3096C33.5002 28.1673 36.858 24.8096 41.0002 24.8096ZM33.5002 39.8096H26.0002M33.5002 39.8096V47.3096C33.5002 51.4518 30.1425 54.8096 26.0002 54.8096C21.8581 54.8096 18.5002 51.4518 18.5002 47.3096C18.5002 43.1673 21.8581 39.8096 26.0002 39.8096" stroke="#FFB857" stroke-width="5" stroke-linecap="round" stroke-linejoin="round"/>
</svg>
