<svg width="64" height="64" viewBox="0 0 64 64" fill="none" xmlns="http://www.w3.org/2000/svg">
<path d="M12.4001 40.8796L18.114 4.11458C18.1559 3.84231 18.2824 3.59012 18.4756 3.39371C18.6688 3.19729 18.9188 3.0666 19.1903 3.02011C19.4619 2.97363 19.7411 3.01371 19.9886 3.13469C20.2361 3.25567 20.4393 3.45141 20.5694 3.69423L26.7153 15.2293L12.4001 40.8796ZM52.9888 49.7997L47.5474 15.9656C47.5065 15.7289 47.4014 15.5078 47.2438 15.3264C47.0861 15.1451 46.8818 15.0104 46.653 14.9369C46.4242 14.8634 46.1796 14.854 45.9458 14.9096C45.7121 14.9653 45.498 15.0838 45.3268 15.2525L11.0115 49.7997L29.9998 60.4999C31.1913 61.1667 32.6437 61.1667 33.8352 60.4999L52.9888 49.7997ZM37.5575 20.2735L33.1597 11.8578C33.0486 11.6465 32.8818 11.4696 32.6774 11.3462C32.4731 11.2228 32.2389 11.1576 32.0002 11.1576C31.7614 11.1576 31.5272 11.2228 31.3229 11.3462C31.1185 11.4696 30.9517 11.6465 30.8406 11.8578L11.5304 46.463L37.5575 20.2735Z" fill="#FFB857"/>
</svg>
