<svg width="64" height="65" viewBox="0 0 64 65" fill="none" xmlns="http://www.w3.org/2000/svg">
<path d="M57.583 28.5837L35.4163 6.41695C34.4762 5.47232 33.2381 5 32 5C30.7619 5 29.5238 5.47232 28.5837 6.41695L24.1999 10.8008L29.6247 16.2255C31.4268 15.1663 33.7746 15.3956 35.32 16.9409C36.8653 18.4862 37.09 20.8341 36.0307 22.6316L41.3638 27.9647C43.1659 26.9054 45.5138 27.1347 47.0591 28.68C48.8933 30.5143 48.8933 33.4857 47.0591 35.32C45.2249 37.1542 42.2534 37.1542 40.4192 35.32C38.8738 33.7746 38.6445 31.4268 39.7038 29.6247L34.3708 24.2916C33.9901 24.5163 33.5912 24.6814 33.1739 24.7869V39.2086C35.1962 39.7313 36.6957 41.5518 36.6957 43.7391C36.6957 46.3346 34.5954 48.4348 32 48.4348C29.4046 48.4348 27.3043 46.3346 27.3043 43.7391C27.3043 41.5518 28.8038 39.7313 30.8261 39.2086V24.7869C30.0419 24.5851 29.2945 24.1953 28.68 23.5808C27.1347 22.0355 26.91 19.6877 27.9693 17.8901L22.5399 12.4608L6.41695 28.5837C4.52768 30.4684 4.52768 33.5316 6.41695 35.4163L28.5837 57.583C29.5238 58.5277 30.7619 59 32 59C33.2381 59 34.4762 58.5277 35.4163 57.583L57.583 35.4163C59.4723 33.5316 59.4723 30.4684 57.583 28.5837Z" fill="#FFB857"/>
</svg>
