<svg width="64" height="65" viewBox="0 0 64 65" fill="none" xmlns="http://www.w3.org/2000/svg">
<path d="M32 6.05957C17.641 6.05957 6 17.7006 6 32.0596C6 44.3366 14.512 54.6196 25.955 57.3456C25.363 57.2046 24.776 57.0466 24.2 56.8666V50.9096C24.2 50.9096 23.225 51.2346 21.925 51.2346C18.288 51.2346 16.777 47.9896 16.4 46.3596C16.171 45.3666 15.573 44.4256 14.931 43.8506C14.164 43.1666 13.805 43.1646 13.8 42.9306C13.79 42.4396 14.458 42.4596 14.775 42.4596C16.4 42.4596 17.632 44.1886 18.204 45.0826C19.621 47.2896 21.142 47.6596 21.925 47.6596C22.9 47.6596 23.742 47.5136 24.322 47.2336C24.59 45.3456 25.43 43.6636 26.8 42.4596C20.703 41.2406 16.4 37.7436 16.4 32.0596C16.4 29.1316 17.575 26.4406 19.533 24.2676C19.333 23.7006 19 22.5536 19 20.6846C19 19.4496 19.086 17.9336 19.65 16.4596C19.65 16.4596 23.358 16.4856 26.855 19.7976C28.469 19.3276 30.196 19.0596 32 19.0596C33.804 19.0596 35.531 19.3276 37.145 19.7976C40.642 16.4856 44.35 16.4596 44.35 16.4596C44.917 17.9336 45 19.4496 45 20.6846C45 22.6996 44.732 23.8746 44.568 24.3816C46.466 26.5346 47.6 29.1836 47.6 32.0596C47.6 37.7436 43.297 41.2406 37.2 42.4596C38.828 43.8896 39.8 45.9726 39.8 48.3096V56.8666C39.224 57.0476 38.638 57.2046 38.045 57.3456C49.488 54.6196 58 44.3366 58 32.0596C58 17.7006 46.359 6.05957 32 6.05957ZM33.813 57.9896C33.214 58.0316 32.61 58.0596 32 58.0596C32.61 58.0596 33.213 58.0306 33.813 57.9896ZM32 58.0596C31.39 58.0596 30.786 58.0316 30.187 57.9896C30.787 58.0306 31.39 58.0596 32 58.0596ZM29.788 57.9596C28.571 57.8566 27.377 57.6706 26.214 57.4056C27.378 57.6696 28.571 57.8566 29.788 57.9596Z" fill="#FFB857"/>
</svg>
