<svg width="64" height="64" viewBox="0 0 64 64" fill="none" xmlns="http://www.w3.org/2000/svg">
<path d="M11.892 55.1641L7.4375 5.18628H56.4375L51.983 55.1641L31.8832 60.8138" fill="#FFB857"/>
<path d="M31.9919 56.4678L48.1804 52.0133L51.9831 9.20618H31.9919" fill="#FFB857"/>
<path d="M31.9919 27.7849H23.8433L23.3001 21.4834H31.9919V15.3991H31.8833H16.564L16.6726 17.0288L18.1937 33.9778H31.9919V27.7849ZM31.9919 43.7561H31.8833L25.0385 41.9091L24.6039 37.02H21.3445H18.5196L19.2802 46.6896L31.8833 50.1663H31.9919V43.7561Z" fill="#0A0A0A"/>
<path d="M31.8831 27.7849V33.9778H39.4884L38.7278 41.9091L31.8831 43.7561V50.1663L44.4862 46.6896L44.5948 45.6031L46.0072 29.4146L46.2245 27.7849H44.4862H31.8831ZM31.8831 15.3991V19.2018V21.4834H46.7678L46.8764 20.1796L47.2023 17.0288L47.311 15.3991H31.8831Z" fill="#0A0A0A"/>
</svg>
