<svg width="64" height="65" viewBox="0 0 64 65" fill="none" xmlns="http://www.w3.org/2000/svg">
<path d="M28.8981 27.9091L30.9934 34.4709H24.1547L26.2103 27.9091C26.6849 26.3279 27.08 24.4702 27.4751 22.9285H27.5541C27.9495 24.4703 28.3841 26.2884 28.8981 27.9091ZM59.9001 13.4596V50.6597C59.9001 55.7747 55.7151 59.9597 50.6001 59.9597H13.4001C8.2851 59.9596 4.1001 55.7746 4.1001 50.6596V13.4596C4.1001 8.34461 8.2851 4.15961 13.4001 4.15961H50.6002C55.7151 4.15961 59.9001 8.34461 59.9001 13.4596ZM39.4524 45.6968L30.7953 19.055H24.5896L16.0516 45.6968H21.0717L23.3645 38.1468H31.8235L34.2348 45.6968H39.4524ZM47.6721 26.4465H42.7705V45.6968H47.6721V26.4465ZM47.9486 21.0708C47.9091 19.5687 46.8816 18.4226 45.2212 18.4226C43.6005 18.4226 42.4939 19.5687 42.4939 21.0708C42.4939 22.5335 43.561 23.6797 45.1817 23.6797C46.8814 23.6796 47.9486 22.5334 47.9486 21.0708Z" fill="#FFB857"/>
</svg>
