<svg width="64" height="64" viewBox="0 0 64 64" fill="none" xmlns="http://www.w3.org/2000/svg">
<path d="M59.5 4.5H4.5V59.5H59.5V4.5Z" fill="#FFB857"/>
<path d="M41.4461 47.4689C42.554 49.2778 43.9953 50.6074 46.5445 50.6074C48.6861 50.6074 50.0541 49.5371 50.0541 48.0582C50.0541 46.286 48.6485 45.6583 46.2914 44.6273L44.9993 44.0729C41.2698 42.484 38.7922 40.4935 38.7922 36.2856C38.7922 32.4094 41.7456 29.4586 46.3612 29.4586C49.6472 29.4586 52.0096 30.6023 53.712 33.5967L49.6874 36.1808C48.8013 34.592 47.8453 33.966 46.3612 33.966C44.8474 33.966 43.888 34.9263 43.888 36.1808C43.888 37.7313 44.8483 38.359 47.0657 39.3193L48.3578 39.8728C52.7491 41.7559 55.2284 43.6757 55.2284 47.9919C55.2284 52.645 51.5731 55.1943 46.6642 55.1943C41.8643 55.1943 38.7634 52.907 37.2461 49.909L41.4461 47.4689ZM23.1888 47.9168C24.0007 49.3573 24.7392 50.5751 26.5149 50.5751C28.213 50.5751 29.2842 49.9108 29.2842 47.3275V29.7537H34.4524V47.3973C34.4524 52.7489 31.3148 55.1846 26.7349 55.1846C22.5968 55.1846 20.2004 53.0431 18.9817 50.4638L23.1888 47.9168Z" fill="#0A0A0A"/>
</svg>
