<svg width="64" height="65" viewBox="0 0 64 65" fill="none" xmlns="http://www.w3.org/2000/svg">
<path d="M30.1989 4.57437C30.0806 4.58512 29.7043 4.62275 29.3656 4.64963C21.5538 5.35383 14.2366 9.56826 9.60215 16.0458C7.02151 19.6474 5.37097 23.7328 4.74731 28.0602C4.52688 29.5707 4.5 30.0169 4.5 32.065C4.5 34.113 4.52688 34.5592 4.74731 36.0697C6.24194 46.3962 13.5914 55.0723 23.5591 58.2869C25.3441 58.8621 27.2258 59.2545 29.3656 59.491C30.1989 59.5824 33.8011 59.5824 34.6344 59.491C38.328 59.0825 41.457 58.1686 44.543 56.5936C45.0161 56.3517 45.1075 56.2872 45.043 56.2334C45 56.2012 42.9839 53.4973 40.5645 50.229L36.1667 44.289L30.6559 36.1342C27.6237 31.651 25.129 27.9849 25.1075 27.9849C25.086 27.9795 25.0645 31.6027 25.0538 36.0267C25.0376 43.7729 25.0323 44.0847 24.9355 44.2675C24.7957 44.5309 24.6882 44.6384 24.4624 44.7566C24.2903 44.8426 24.1398 44.8588 23.328 44.8588H22.3978L22.1505 44.7029C21.9892 44.6007 21.871 44.4664 21.7903 44.3105L21.6774 44.0686L21.6882 33.2906L21.7043 22.5072L21.871 22.2976C21.957 22.1847 22.1398 22.0395 22.2688 21.9697C22.4892 21.8622 22.5753 21.8514 23.5054 21.8514C24.6022 21.8514 24.7849 21.8944 25.0699 22.2062C25.1505 22.2922 28.1344 26.7862 31.7043 32.1993C35.2742 37.6125 40.1559 45.0039 42.5538 48.6324L46.9086 55.2282L47.129 55.0831C49.0806 53.8144 51.1452 52.0083 52.7796 50.1268C56.2581 46.1328 58.5 41.2625 59.2527 36.0697C59.4731 34.5592 59.5 34.113 59.5 32.065C59.5 30.0169 59.4731 29.5707 59.2527 28.0602C57.7581 17.7337 50.4086 9.05758 40.4409 5.843C38.6828 5.27319 36.8118 4.88078 34.7151 4.64425C34.1989 4.5905 30.6452 4.53137 30.1989 4.57437ZM41.457 21.2063C41.7151 21.3353 41.9247 21.5826 42 21.8407C42.043 21.9804 42.0538 24.9692 42.043 31.7048L42.0269 41.37L40.3226 38.7575L38.6129 36.145V29.1192C38.6129 24.5768 38.6344 22.0234 38.6667 21.8998C38.7527 21.5988 38.9409 21.3622 39.1989 21.2225C39.4194 21.1096 39.5 21.0988 40.3441 21.0988C41.1398 21.0988 41.2796 21.1096 41.457 21.2063Z" fill="#FFB857"/>
</svg>
