<svg width="64" height="65" viewBox="0 0 64 65" fill="none" xmlns="http://www.w3.org/2000/svg">
<g clip-path="url(#clip0_115_156)">
<path d="M56.3999 15.7929L34.2666 3.25954C33.5573 2.92654 32.7834 2.75391 31.9999 2.75391C31.2164 2.75391 30.4425 2.92654 29.7332 3.25954L7.59992 15.7929C6.9194 16.1857 6.35267 16.7486 5.9553 17.4265C5.55793 18.1044 5.34357 18.8739 5.33325 19.6595V44.4595C5.34357 45.2452 5.55793 46.0147 5.9553 46.6926C6.35267 47.3705 6.9194 47.9334 7.59992 48.3262L13.4666 51.6595C14.9992 52.5652 16.7534 53.0268 18.5333 52.9929C22.6666 52.9929 25.0666 50.4595 25.0666 46.1929V21.7929C25.0666 21.6161 24.9963 21.4465 24.8713 21.3215C24.7463 21.1964 24.5767 21.1262 24.3999 21.1262H21.5999C21.4231 21.1262 21.2535 21.1964 21.1285 21.3215C21.0035 21.4465 20.9333 21.6161 20.9333 21.7929V46.1929C20.9333 48.1929 18.9333 50.0595 15.7333 48.4595L9.59992 44.9929C9.51712 44.9308 9.44992 44.8503 9.40363 44.7577C9.35735 44.6651 9.33325 44.563 9.33325 44.4595V19.6595C9.34243 19.4132 9.43666 19.1776 9.59992 18.9929L31.5999 6.59287H32.3999L54.3999 18.9929C54.5632 19.1776 54.6574 19.4132 54.6666 19.6595V44.4595C54.6666 44.563 54.6425 44.6651 54.5962 44.7577C54.5499 44.8503 54.4827 44.9308 54.3999 44.9929L32.3999 57.3929C32.2783 57.4631 32.1403 57.5 31.9999 57.5C31.8595 57.5 31.7215 57.4631 31.5999 57.3929L25.9999 54.1929C25.9266 54.1273 25.8316 54.091 25.7332 54.091C25.6349 54.091 25.5399 54.1273 25.4666 54.1929L22.1333 55.6595C21.7333 55.7929 21.1999 55.9262 22.2666 56.5929L29.7332 60.7262C30.4067 61.1679 31.1945 61.4031 31.9999 61.4031C32.8053 61.4031 33.5931 61.1679 34.2666 60.7262L56.3999 48.3262C57.0804 47.9334 57.6472 47.3705 58.0445 46.6926C58.4419 46.0147 58.6563 45.2452 58.6666 44.4595V19.6595C58.6563 18.8739 58.4419 18.1044 58.0445 17.4265C57.6472 16.7486 57.0804 16.1857 56.3999 15.7929Z" fill="#FFB857"/>
<path d="M38.8 40.4595C32.9333 40.4595 31.7333 39.1262 31.2 36.3262C31.2 36.1848 31.1438 36.0491 31.0437 35.9491C30.9437 35.8491 30.8081 35.7929 30.6666 35.7929H27.7333C27.5918 35.7929 27.4562 35.8491 27.3562 35.9491C27.2561 36.0491 27.2 36.1848 27.2 36.3262C27.2 39.9262 29.2 44.3262 38.8 44.3262C45.7333 44.3262 49.7333 41.6595 49.7333 36.9929C49.7333 32.3262 46.5333 30.9929 39.7333 30.1929C32.9333 29.3929 32.2666 28.8595 32.2666 27.2595C32.2666 25.6595 32.8 24.3262 37.8666 24.3262C42.9333 24.3262 44.1333 25.2595 44.8 28.1929C44.8311 28.3457 44.9149 28.4828 45.0367 28.5802C45.1585 28.6777 45.3107 28.7293 45.4666 28.7262H48.2666L48.8 28.4595C48.8482 28.4054 48.8849 28.342 48.9078 28.2733C48.9307 28.2045 48.9394 28.1318 48.9333 28.0595C48.5333 22.8595 44.9333 20.4595 37.8666 20.4595C30.8 20.4595 27.8666 23.1262 27.8666 27.3929C27.8666 31.6595 31.6 33.3929 37.6 34.0595C43.6 34.7262 45.4666 35.6595 45.4666 37.1262C45.4666 38.5929 43.4666 40.4595 38.8 40.4595Z" fill="#FFB857"/>
</g>
<defs>
<clipPath id="clip0_115_156">
<rect width="64" height="64" fill="white" transform="translate(0 0.0595703)"/>
</clipPath>
</defs>
</svg>
