<svg width="64" height="65" viewBox="0 0 64 65" fill="none" xmlns="http://www.w3.org/2000/svg">
<path d="M50.627 4.11926H13.3733C8.25086 4.11926 4.05981 8.31031 4.05981 13.4327V50.6865C4.05981 55.809 8.25086 60 13.3733 60H50.6271C55.7495 60 59.9405 55.809 59.9405 50.6865V13.4327C59.9404 8.31031 55.7494 4.11926 50.627 4.11926ZM30.8332 32.5543C28.8937 34.4938 25.8454 35.4046 22.4016 35.4046C21.4911 35.4046 20.6599 35.3647 20.0264 35.246V45.3007H15.1973V18.9766C16.939 18.66 19.3538 18.4223 22.639 18.4223C26.202 18.4223 28.8146 19.1744 30.5168 20.5997C32.1003 21.9061 33.1293 24.004 33.1293 26.4979C33.1292 29.0314 32.3376 31.1292 30.8332 32.5543ZM40.9652 45.6969C38.6296 45.6969 36.5317 45.1425 35.1066 44.3507L36.0566 40.8277C37.1649 41.5007 39.2631 42.2133 41.0048 42.2133C43.1421 42.2133 44.0925 41.3424 44.0925 40.0755C44.0925 38.7695 43.3009 38.0963 40.9256 37.2651C37.1648 35.9586 35.5818 33.9004 35.6213 31.6439C35.6213 28.2396 38.4318 25.5875 42.9048 25.5875C45.0426 25.5875 46.9031 26.1418 48.0112 26.7353L47.0612 30.1792C46.2299 29.7044 44.6859 29.0709 42.9839 29.0709C41.2421 29.0709 40.2921 29.9022 40.2921 31.0896C40.2921 32.317 41.2026 32.9109 43.657 33.7817C47.1404 35.0483 48.7634 36.8295 48.803 39.68C48.8029 43.1634 46.0718 45.6969 40.9652 45.6969ZM28.2602 26.6957C28.2602 29.823 26.0432 31.6043 22.4016 31.6043C21.412 31.6043 20.6203 31.5647 20.0264 31.4065V22.381C20.5412 22.2623 21.4912 22.1436 22.8372 22.1436C26.202 22.1436 28.2602 23.727 28.2602 26.6957Z" fill="#FFB857"/>
</svg>
