<svg width="64" height="65" viewBox="0 0 64 65" fill="none" xmlns="http://www.w3.org/2000/svg">
<path d="M44.7142 3.49933C42.8447 3.49933 41.2234 3.86935 39.7287 4.24423C42.348 5.36402 43.9693 6.73699 44.8408 7.36017C46.837 9.10315 47.9567 10.851 49.9529 13.7186C50.3229 14.3418 50.9461 15.2133 51.321 16.5814C51.6959 17.8278 51.6959 18.8259 51.6959 19.8239C51.6959 21.1969 51.5693 22.3167 51.4427 23.4365C51.321 24.3128 51.321 24.6877 51.1993 24.936C51.1993 25.0626 51.1993 25.1843 51.0727 25.4326C51.0727 26.0558 51.0727 26.309 51.1993 26.8056C51.1993 27.3022 51.321 27.8037 51.321 28.6752C51.4476 30.2964 51.4476 31.4162 51.1993 32.7843V33.2858C50.9461 34.4056 50.6978 35.5302 50.0746 36.5234C50.2012 36.7766 50.3229 36.8983 50.4495 37.1466C51.0727 36.2751 51.5693 35.4036 52.0659 34.4104C53.5654 31.6645 54.4369 29.2983 55.0601 27.5554C56.1799 24.3128 56.8031 21.9418 57.178 20.1988C58.0495 16.4597 58.1761 14.7167 57.8012 12.7206C57.8012 12.0974 57.5529 10.9727 56.9297 9.85293C55.5567 7.36017 53.4389 6.24038 51.9442 5.49061C50.9461 4.99401 48.3268 3.62104 44.7142 3.49933ZM17.7126 4.04949C16.2764 4.02027 14.5237 4.18094 12.5567 5.11572C11.9335 5.36889 10.064 6.24038 8.5693 8.23166C7.57122 9.47804 6.82632 11.3476 6.45143 13.4655C6.07655 15.335 5.94996 17.5844 6.69973 21.8201C7.19634 24.8094 7.69781 26.8056 8.69588 30.9147C8.82247 31.4162 9.56737 33.6607 11.1886 38.6462L11.3104 38.8945C11.5635 39.766 12.3084 41.6355 13.9297 43.5051C15.0495 44.7515 16.0476 45.5012 16.9239 45.5012H17.1673C18.7886 45.5012 19.9133 44.2549 20.9065 43.2568C20.9065 43.1302 23.2775 40.2674 24.149 39.2694C24.0224 39.1428 23.779 39.1428 23.6524 39.0162C22.1577 38.1447 21.0331 36.7766 20.1616 35.2771C18.6669 32.536 18.7886 29.795 19.0369 28.422L19.1635 26.309C18.6669 22.9399 18.7935 19.7022 19.4167 16.4597C19.9133 13.7186 20.5365 10.9776 22.776 8.10995C23.5258 7.11187 24.3973 6.24038 25.2688 5.61719C23.2775 4.74571 21.1596 4.24423 19.0369 4.12252C18.6328 4.08844 18.1898 4.05922 17.7126 4.04949ZM33.3702 5.11572C32.7471 5.11572 32.1239 5.11572 31.5007 5.24231C29.0079 5.73891 26.6418 7.11187 24.7722 9.47804C22.9026 11.8491 22.406 14.0887 21.9094 16.708C21.6563 17.7061 21.6563 18.5776 21.5297 19.5756C22.2794 18.9524 23.2775 18.2027 24.7722 17.8278C25.6437 17.5795 27.8881 16.8346 29.7577 17.9544C30.3809 18.3293 31.2524 19.079 32.1239 21.1969C33.9934 26.4307 32.1287 31.7911 31.8804 32.2877C31.7538 32.7843 31.5055 33.1592 31.379 33.4075C31.1307 34.0307 30.8824 34.5322 30.6341 35.5302C30.5075 36.4017 30.3809 37.1515 30.3809 38.023C30.7558 38.023 31.1307 38.1447 31.5007 38.393C32.1239 39.0162 32.2505 39.8925 32.377 40.2626C32.6253 42.2587 32.6253 44.7515 32.6253 47.2442C32.6253 49.2404 32.6253 51.1099 32.7471 52.3563C33.0002 55.224 33.8717 57.2152 35.1181 58.2133C35.9896 58.9631 37.1094 58.9582 37.7326 59.0848H37.9857C39.8553 59.0848 42.8447 57.8384 43.9644 56.0954C44.5876 55.0974 44.8408 54.2259 45.0891 52.9795C45.2157 52.2297 45.2108 51.8597 45.3374 51.1099C45.3374 50.7351 45.464 50.1119 45.464 49.367C45.464 48.7438 45.5857 47.994 45.7123 47.1176C45.8389 44.9998 46.2089 42.5119 46.3355 41.1389C46.4621 39.5177 47.207 38.1447 47.8302 37.2732C46.9587 37.1466 46.0872 36.4017 45.5906 35.1553C44.8408 33.7824 44.7142 33.4075 44.5876 32.7843C44.4659 32.2877 44.2176 31.6645 43.3413 29.795C41.4717 25.5592 41.2283 24.3128 41.2283 23.3148C41.1017 21.9418 40.9751 20.0771 42.4746 18.8307C44.7142 16.8346 47.5819 16.9612 49.0765 17.4578V17.2046C48.8282 16.2114 48.3316 15.4616 47.9567 14.965C46.0872 12.0974 45.0891 10.6027 43.3413 9.10802C42.5964 8.48483 40.7268 6.98529 37.9857 5.99208C36.7394 5.61719 35.2398 5.11572 33.3702 5.11572ZM47.1485 19.7314C46.243 19.6681 45.0891 19.8239 44.091 20.7003C43.5944 21.1969 43.5944 22.195 43.721 23.0665C43.721 23.6897 43.8427 24.5611 45.7123 28.8017C46.5838 30.793 46.8321 31.4162 46.9587 31.9177C47.0853 32.4143 47.207 32.6626 47.9567 34.0307C48.0833 34.2839 48.205 34.5322 48.4533 34.7805C48.7016 34.4056 48.8282 33.7824 48.9499 32.7843L49.0765 32.4143C49.3248 31.2945 49.2031 30.4181 49.2031 28.9235C49.2031 28.1737 49.0765 27.6771 49.0765 27.3022C48.9499 26.679 48.9499 26.1824 48.9499 25.4326C48.7016 25.0577 48.7016 24.936 48.8282 24.6829C48.8282 24.4346 48.9499 24.0645 49.0765 23.3148C49.2031 22.3167 49.3297 21.4452 49.3297 20.4471C49.0765 20.3205 48.9548 20.1988 48.7065 20.0771C48.7065 20.0771 48.0492 19.7947 47.1485 19.7314ZM27.6593 20.2232C26.8657 20.1307 25.9553 20.3887 25.3954 20.5737C24.0224 20.9486 23.1558 21.8201 22.5326 22.3167C22.1577 22.6916 21.7828 23.0665 21.408 23.5631C21.408 24.4346 21.5297 25.3109 21.6563 26.1824V26.309L21.408 28.8017C21.1596 29.9215 21.0331 32.0394 22.2794 34.1573C22.9026 35.4036 23.779 36.4017 24.8988 37.0249C25.6486 37.5215 26.6418 37.8964 27.7615 38.1496C27.7615 37.2732 27.8881 36.2751 28.0147 35.4036C28.263 34.1573 28.5113 33.5341 28.8862 32.7843C29.0128 32.4143 29.1345 32.166 29.3877 31.7911C29.5094 31.4162 31.2524 26.679 29.6311 22.3167C29.2611 21.3186 28.8862 20.6954 28.3847 20.4471C28.1705 20.3205 27.9173 20.2524 27.6593 20.2232ZM45.946 20.934C46.2722 20.9145 46.5838 20.9437 46.7104 21.0703C47.0853 21.3186 46.5838 21.9418 46.4572 22.0684C46.3355 22.195 46.0872 22.4433 45.7123 22.5699C45.2157 22.6916 44.8408 22.3167 44.7142 22.3167C44.5876 22.1901 44.2176 21.8201 44.3442 21.4452C44.4659 21.1969 44.5925 21.1969 45.0891 21.0703C45.2741 21.007 45.6198 20.9486 45.946 20.934ZM27.2114 21.9661C27.6301 21.9369 27.9806 22.0976 28.263 22.1901C28.6379 22.3167 29.0079 22.4433 29.0079 22.6916C29.1345 23.0665 28.7645 23.3148 28.6379 23.4365C28.263 23.8114 27.6398 23.8162 27.6398 23.8162C27.0166 23.8162 26.6418 23.4414 26.3935 23.0665C26.2669 22.9399 26.1452 22.6916 26.2717 22.4433C26.3935 22.195 26.6418 22.0684 26.7683 22.0684C26.9241 22.0051 27.0702 21.9759 27.2114 21.9661ZM50.0746 38.2713C49.4514 39.1428 48.5799 40.2674 48.4533 41.7621C48.4533 42.0104 48.4533 42.137 48.3268 42.3853C49.3248 42.6336 50.2012 42.6336 51.0727 42.5119C53.0688 42.2587 54.4369 41.2606 54.6852 41.0123C55.5567 40.3892 56.6814 39.1428 56.4282 38.6462C56.3065 38.3979 55.9316 38.5196 53.9355 38.6462C53.4389 38.6462 51.9442 39.0211 50.9461 38.7728H50.6978C50.4495 38.6462 50.2012 38.5196 50.0746 38.2713ZM28.3847 40.764C28.1364 41.1389 27.7664 41.3872 27.5181 41.6355C26.52 42.2587 25.2688 42.7602 24.0224 43.0085C22.9026 43.3834 22.2794 43.3834 22.2794 43.7583C22.1529 44.2549 23.3992 44.8781 24.0224 45.1264C26.1452 45.9978 28.263 45.5012 28.6379 45.3747C28.8862 45.2481 29.5094 44.9998 30.1326 44.6249C30.1326 43.2568 30.0109 42.0104 29.8843 41.0123V40.8858H29.7577C29.3828 40.8858 28.8862 40.8906 28.3847 40.764Z" fill="#FFB857"/>
</svg>
