<svg width="72" height="65" viewBox="0 0 72 65" fill="none" xmlns="http://www.w3.org/2000/svg">
<path d="M35.9999 37.667C39.1132 37.667 41.6371 35.1431 41.6371 32.0298C41.6371 28.9165 39.1132 26.3927 35.9999 26.3927C32.8866 26.3927 30.3628 28.9165 30.3628 32.0298C30.3628 35.1431 32.8866 37.667 35.9999 37.667Z" fill="#FFB857"/>
<path d="M36 43.579C52.7055 43.579 66.248 38.4083 66.248 32.0298C66.248 25.6513 52.7055 20.4805 36 20.4805C19.2945 20.4805 5.75195 25.6513 5.75195 32.0298C5.75195 38.4083 19.2945 43.579 36 43.579Z" stroke="#FFB857" stroke-width="3.66642"/>
<path d="M25.9981 37.8044C34.3508 52.2718 45.6001 61.4146 51.124 58.2253C56.6479 55.0361 54.3547 40.7225 46.0019 26.2551C37.6492 11.7877 26.3999 2.64496 20.876 5.83419C15.3521 9.02343 17.6453 23.337 25.9981 37.8044Z" stroke="#FFB857" stroke-width="3.66642"/>
<path d="M25.9981 26.2551C17.6453 40.7226 15.3521 55.0361 20.876 58.2253C26.3999 61.4146 37.6492 52.2718 46.002 37.8044C54.3547 23.337 56.648 9.02344 51.124 5.8342C45.6001 2.64497 34.3508 11.7877 25.9981 26.2551Z" stroke="#FFB857" stroke-width="3.66642"/>
</svg>
