<svg width="64" height="65" viewBox="0 0 64 65" fill="none" xmlns="http://www.w3.org/2000/svg">
<g clip-path="url(#clip0_115_228)">
<path d="M55.066 35.6516C55.144 35.6496 55.236 35.6476 55.33 35.6476C56.998 35.6476 58.576 36.0356 59.976 36.7276L59.914 36.6996C61.19 37.3216 62.238 38.2416 62.996 39.3696L63.014 39.3976C63.612 40.2696 63.968 41.3476 63.968 42.5076C63.968 42.5916 63.966 42.6756 63.962 42.7576V42.7456C63.9 43.9036 63.374 44.9256 62.566 45.6416L62.562 45.6456C62.12 46.0796 61.586 46.4196 60.992 46.6356L60.962 46.6456C60.6287 46.7122 60.4454 46.6622 60.412 46.4956C60.3787 46.3289 60.5287 46.1456 60.862 45.9456C61.766 45.3976 62.42 44.5136 62.658 43.4716L62.664 43.4456C62.67 43.3616 62.674 43.2636 62.674 43.1636C62.674 42.5416 62.526 41.9536 62.264 41.4336L62.274 41.4556C61.84 40.5496 61.192 39.8056 60.394 39.2676L60.374 39.2556C59.18 38.4876 57.748 37.9836 56.208 37.8576L56.176 37.8556C55.652 37.7776 55.048 37.7336 54.432 37.7336C52.83 37.7336 51.3 38.0356 49.892 38.5856L49.976 38.5556C50.266 39.2336 50.448 40.0196 50.474 40.8436V40.8536C50.442 42.5436 49.534 44.0136 48.184 44.8336L48.162 44.8456C47.542 45.2856 46.834 45.6716 46.08 45.9716L46.01 45.9956C45.552 46.2196 45.014 46.3496 44.446 46.3496C44.38 46.3496 44.316 46.3476 44.252 46.3436H44.262C42.9967 46.0782 42.6967 44.9782 43.362 43.0436C43.652 42.2016 44.058 41.4716 44.572 40.8296L44.56 40.8436C45.218 39.9836 45.94 39.2296 46.738 38.5616L46.76 38.5436L46.564 38.2516C46.198 37.6276 45.862 36.9016 45.592 36.1436L45.564 36.0516C45.364 35.3849 45.1974 34.7522 45.064 34.1536L44.964 33.4536L43.964 35.3516C43.0974 36.9516 42.264 38.3509 41.464 39.5496L41.164 40.0496C41.5 40.8656 41.748 41.8116 41.86 42.7996L41.864 42.8496C41.872 42.9436 41.876 43.0556 41.876 43.1676C41.876 44.6836 41.128 46.0236 39.98 46.8416L39.966 46.8516C39.418 47.1896 38.764 47.5396 38.086 47.8516L37.966 47.9016C37.26 48.2076 36.442 48.4076 35.584 48.4516H35.566C35.5 48.4556 35.422 48.4596 35.344 48.4596C34.844 48.4596 34.37 48.3456 33.946 48.1436L33.966 48.1516C33.712 47.9336 33.552 47.6136 33.552 47.2556C33.552 47.0736 33.594 46.8996 33.668 46.7456L33.664 46.7536C34.464 45.6316 35.252 44.6556 36.09 43.7236L36.064 43.7536L38.264 40.9556L37.866 40.0556C37.546 39.4676 37.24 38.7736 36.994 38.0536L36.966 37.9576C36.766 37.2909 36.5994 36.6582 36.466 36.0596L36.366 35.3596L35.366 37.7596C34.5674 39.6249 33.834 41.2242 33.166 42.5576C32.17 44.5576 31.3367 46.0909 30.666 47.1576L30.466 47.4576C29.6674 48.7229 28.9007 49.3556 28.166 49.3556C27.4314 49.3556 26.9334 48.8889 26.672 47.9556C26.48 47.2676 26.368 46.4776 26.368 45.6616C26.368 45.5896 26.368 45.5176 26.37 45.4456V45.4556L26.57 44.0556V44.1556C26.0367 45.4209 25.5034 46.5869 24.97 47.6536C24.616 48.3456 24.252 48.9356 23.844 49.4916L23.87 49.4536C23.458 49.8856 22.878 50.1536 22.236 50.1536C22.23 50.1536 22.226 50.1536 22.22 50.1536C22.178 50.1576 22.13 50.1576 22.082 50.1576C21.576 50.1576 21.116 49.9656 20.768 49.6516L20.77 49.6536C20.072 48.9376 19.554 48.0436 19.286 47.0456L19.276 47.0036C18.948 46.0936 18.76 45.0416 18.76 43.9456C18.76 43.8036 18.764 43.6636 18.77 43.5256V43.5456C18.928 41.9536 19.246 40.4956 19.712 39.1056L19.67 39.2476L16.072 41.3476V41.4476C16.594 42.5316 16.9 43.8036 16.9 45.1476C16.9 45.3936 16.89 45.6376 16.87 45.8776L16.872 45.8456C16.766 47.9056 16.108 49.7916 15.046 51.3856L15.072 51.3456C13.958 53.1136 12.352 54.4796 10.444 55.2696L10.378 55.2936C9.30405 55.7756 8.04805 56.0576 6.72805 56.0576C5.89205 56.0576 5.08005 55.9456 4.31205 55.7336L4.37605 55.7476C3.74005 55.5336 3.22005 55.1096 2.89005 54.5616L2.88405 54.5496C2.41805 53.8736 2.12405 53.0476 2.07805 52.1576V52.1456C2.05605 51.9436 2.04405 51.7096 2.04405 51.4716C2.04405 50.4456 2.27805 49.4736 2.69605 48.6076L2.67805 48.6476C3.82605 46.6896 5.41405 45.1036 7.31005 43.9876L7.37005 43.9556C8.71205 43.0256 10.254 42.1236 11.864 41.3376L12.076 41.2436L12.576 40.9436C11.976 40.4769 10.876 39.6769 9.27605 38.5436C7.13805 37.1116 5.28005 35.6656 3.52805 34.1016L3.57805 34.1456C1.88405 32.6876 0.650047 30.7396 0.0960469 28.5216L0.0800469 28.4456C0.0280469 28.1376 -0.00195312 27.7836 -0.00195312 27.4236C-0.00195312 26.2956 0.288047 25.2356 0.796047 24.3136L0.780047 24.3476C1.90005 21.9396 3.45205 19.9096 5.35605 18.2776L5.38005 18.2576C7.44005 16.3116 9.77205 14.6176 12.304 13.2456L12.478 13.1596C14.74 11.8536 17.382 10.6396 20.136 9.66557L20.476 9.56157C23.034 8.62557 25.988 8.07757 29.068 8.06757H29.072C29.212 8.06357 29.378 8.05957 29.544 8.05957C32.026 8.05957 34.374 8.63357 36.462 9.65557L36.37 9.61357C38.17 10.4336 39.518 11.9776 40.058 13.8656L40.07 13.9136C40.236 14.5576 40.33 15.2976 40.33 16.0596C40.33 17.3236 40.068 18.5276 39.598 19.6196L39.62 19.5616C38.764 21.6356 37.546 23.4016 36.026 24.8556L36.02 24.8616C34.48 26.3876 32.634 27.6076 30.584 28.4216L30.474 28.4596C28.326 29.3816 25.832 29.9616 23.214 30.0576L23.176 30.0596C22.792 30.1036 22.348 30.1276 21.898 30.1276C20.714 30.1276 19.572 29.9576 18.492 29.6396L18.578 29.6616C17.612 29.3536 16.778 28.8756 16.07 28.2556L16.078 28.2616C15.582 27.8576 15.178 27.3596 14.89 26.7936L14.878 26.7676C14.678 26.2342 14.6614 25.9176 14.828 25.8176C14.9947 25.7176 15.1114 25.7009 15.178 25.7676L15.678 26.2676C16.236 26.7856 16.902 27.1936 17.638 27.4536L17.678 27.4656C18.69 27.8176 19.858 28.0216 21.072 28.0216C21.462 28.0216 21.846 28.0016 22.224 27.9596L22.178 27.9636C25.414 27.5816 28.332 26.4776 30.85 24.8176L30.776 24.8636C32.904 23.5976 34.626 21.8576 35.838 19.7836L35.874 19.7156C36.476 18.8316 36.836 17.7396 36.836 16.5636C36.836 15.8416 36.7 15.1496 36.452 14.5136L36.466 14.5516C35.718 13.3696 34.508 12.5376 33.096 12.3076L33.068 12.3036C31.972 12.0336 30.712 11.8776 29.418 11.8776C28.376 11.8776 27.356 11.9776 26.37 12.1696L26.47 12.1536C23.096 12.7616 20.08 13.8036 17.298 15.2356L17.48 15.1496C9.28271 19.2829 5.05005 23.5156 4.78205 27.8476V27.9456C4.78205 29.6916 5.46805 31.2776 6.58605 32.4496L6.58405 32.4476C7.85805 33.8636 9.26605 35.1136 10.804 36.1936L10.882 36.2456C12.284 37.2936 13.524 38.3756 14.678 39.5436L14.68 39.5476L14.88 39.7476L21.28 36.2496C22.01 35.1936 22.888 34.3016 23.896 33.5816L23.928 33.5596C24.728 32.8876 25.744 32.4496 26.858 32.3616L26.876 32.3596C26.916 32.3556 26.962 32.3556 27.01 32.3556C27.756 32.3556 28.396 32.8056 28.672 33.4496L28.676 33.4616C28.886 33.9316 29.008 34.4816 29.008 35.0596C29.008 35.2356 28.996 35.4096 28.974 35.5816L28.976 35.5616L28.782 36.5476L29.082 36.3476C29.29 36.1896 29.552 36.0956 29.836 36.0956C30.016 36.0956 30.186 36.1336 30.34 36.2016L30.332 36.1976C30.716 36.2976 30.994 36.6416 30.994 37.0496C30.994 37.1196 30.986 37.1876 30.97 37.2536L30.972 37.2476L30.672 38.3476C30.072 40.7462 29.6727 42.4789 29.474 43.5456C29.374 43.8916 29.318 44.2896 29.318 44.7016C29.318 44.7876 29.32 44.8716 29.326 44.9556V44.9436C29.3594 45.3436 29.4094 45.5436 29.476 45.5436C29.5427 45.5436 29.6754 45.3436 29.874 44.9436L30.174 44.2436C30.2407 44.2436 30.2407 44.2769 30.174 44.3436L31.274 42.0436C33.874 36.3129 35.2734 33.1129 35.472 32.4436L36.072 30.5456C36.1387 30.4122 36.4054 30.2796 36.872 30.1476C37.346 30.0196 37.888 29.9456 38.448 29.9456C38.494 29.9456 38.54 29.9456 38.584 29.9476H38.578C39.5114 29.9476 39.978 30.1809 39.978 30.6476L39.878 31.1476C39.654 31.7636 39.432 32.5336 39.26 33.3216L39.238 33.4476C39.198 33.7056 39.174 34.0016 39.174 34.3056C39.174 34.7096 39.214 35.1036 39.292 35.4856L39.286 35.4476L39.386 35.8456C39.59 36.6796 39.9 37.4116 40.306 38.0796L40.286 38.0456C41.0847 36.7136 41.8514 35.3476 42.586 33.9476C43.166 32.9816 43.706 31.8616 44.14 30.6896L44.186 30.5496C44.336 29.7956 44.508 29.1596 44.718 28.5396L44.686 28.6516C44.7527 28.4516 45.0374 28.3016 45.54 28.2016C46.016 28.1056 46.562 28.0516 47.12 28.0516H47.192H47.188C48.1214 28.0516 48.6194 28.2849 48.682 28.7516L48.482 29.1496C48.244 29.8216 48.036 30.6296 47.896 31.4596L47.884 31.5496C47.866 31.7436 47.854 31.9676 47.854 32.1956C47.854 32.6736 47.902 33.1416 47.992 33.5936L47.984 33.5476V33.9456C48.214 34.8176 48.556 35.5836 49.004 36.2776L48.984 36.2456L49.284 36.9456C50.954 36.1256 52.918 35.6456 54.994 35.6456H55.072H55.068L55.066 35.6516ZM12.188 50.1576C13.578 48.7216 14.436 46.7616 14.436 44.6016C14.436 43.7676 14.308 42.9636 14.072 42.2076L14.088 42.2636L12.488 43.2636C10.856 44.1936 9.44405 45.2316 8.16605 46.4116L8.18205 46.3976C7.21205 47.2896 6.49605 48.4436 6.14405 49.7456L6.13205 49.7956C5.83205 51.0289 5.98205 51.8289 6.58205 52.1956C6.94805 52.3636 7.37805 52.4616 7.82805 52.4616C8.32005 52.4616 8.78605 52.3456 9.19605 52.1376L9.17805 52.1456C10.366 51.7136 11.372 51.0276 12.172 50.1496L12.178 50.1436L12.188 50.1576ZM25.582 40.9496C25.9154 40.0829 26.282 39.0496 26.682 37.8496C27.2154 36.2496 27.3987 35.3169 27.232 35.0516C27.0654 34.7862 26.7487 34.7529 26.282 34.9516C25.726 35.2216 25.26 35.5916 24.888 36.0456L24.882 36.0536C24.466 36.5796 24.07 37.1676 23.718 37.7856L23.682 37.8536C23.278 38.5156 22.936 39.2776 22.698 40.0856L22.68 40.1536C22.294 41.1996 22.07 42.4096 22.07 43.6696C22.07 43.8396 22.074 44.0076 22.082 44.1756V44.1516C22.1487 45.4836 22.362 46.2002 22.722 46.3016C23.082 46.4029 23.4987 45.9196 23.972 44.8516C24.43 44.0256 24.838 43.0656 25.142 42.0596L25.17 41.9516C25.3687 41.4796 25.5047 41.1456 25.578 40.9496H25.582ZM36.674 46.2496C38.06 45.6276 39.036 44.3176 39.172 42.7676L39.174 42.7516V42.6516L38.074 44.0516L36.076 46.2516C36.046 46.2756 36.026 46.3116 36.026 46.3516C36.026 46.3916 36.046 46.4276 36.074 46.4516C36.138 46.5169 36.338 46.4502 36.674 46.2516V46.2496ZM45.272 44.3496C46.784 43.9176 47.872 42.5476 47.872 40.9256C47.872 40.8996 47.872 40.8736 47.872 40.8476V40.8516C47.852 40.4516 47.78 40.0756 47.662 39.7196L47.67 39.7496C46.892 40.4416 46.254 41.2696 45.792 42.2036L45.77 42.2496C45.1687 43.4482 45.0007 44.1469 45.266 44.3456L45.272 44.3496Z" fill="#FFB857"/>
</g>
<defs>
<clipPath id="clip0_115_228">
<rect width="64" height="64" fill="white" transform="translate(0 0.0595703)"/>
</clipPath>
</defs>
</svg>
