<svg width="64" height="65" viewBox="0 0 64 65" fill="none" xmlns="http://www.w3.org/2000/svg">
<path d="M32 15C24.4158 15 19.6757 18.7909 17.7797 26.3727C20.6237 22.5818 23.9418 21.161 27.7339 22.1078C29.8978 22.6482 31.4442 24.2183 33.1566 25.9556C35.9438 28.7843 39.1706 32.0597 46.2203 32.0597C53.8045 32.0597 58.5446 28.2688 60.4407 20.6858C57.5966 24.4767 54.2785 25.8987 50.4865 24.9519C48.3238 24.4115 46.7773 22.8413 45.0649 21.1041C42.2766 18.2742 39.0486 15 32 15ZM17.7797 32.0597C10.1955 32.0597 5.45537 35.8506 3.55933 43.4336C6.40339 39.6427 9.72147 38.2206 13.5136 39.1687C15.6762 39.7102 17.2227 41.2792 18.9351 43.0153C21.7234 45.8451 24.9515 49.1205 32 49.1205C39.5842 49.1205 44.3243 45.3296 46.2203 37.7466C43.3763 41.5375 40.0582 42.9596 36.2661 42.0115C34.1022 41.4712 32.5558 39.901 30.8434 38.1649C28.0562 35.3351 24.8294 32.0597 17.7797 32.0597Z" fill="#FFB857"/>
</svg>
