<svg width="64" height="64" viewBox="0 0 64 64" fill="none" xmlns="http://www.w3.org/2000/svg">
<path d="M52.6289 5H8.37109C5.40472 5 3 7.40472 3 10.3711V54.6289C3 57.5953 5.40472 60 8.37109 60H52.6289C55.5953 60 58 57.5953 58 54.6289V10.3711C58 7.40472 55.5953 5 52.6289 5Z" fill="#FFB857"/>
<path d="M52.6289 5H8.37109C5.40472 5 3 7.40472 3 10.3711V54.6289C3 57.5953 5.40472 60 8.37109 60H52.6289C55.5953 60 58 57.5953 58 54.6289V10.3711C58 7.40472 55.5953 5 52.6289 5Z" fill="#FFB857"/>
<path fill-rule="evenodd" clip-rule="evenodd" d="M37.0462 48.7663V54.1439C37.9204 54.5921 38.9543 54.9281 40.148 55.1522C41.3417 55.3762 42.5997 55.4883 43.9223 55.4883C45.2112 55.4883 46.4356 55.3651 47.5957 55.1185C48.7557 54.8721 49.7729 54.4659 50.6471 53.9002C51.5213 53.3345 52.2134 52.595 52.7233 51.6819C53.2333 50.7688 53.4883 49.6401 53.4883 48.2957C53.4883 47.321 53.3426 46.4668 53.0512 45.733C52.7597 44.9992 52.3395 44.3466 51.7903 43.7752C51.2411 43.2038 50.5826 42.6912 49.8149 42.2375C49.0471 41.7837 48.1813 41.3552 47.2174 40.952C46.5113 40.6606 45.8781 40.3778 45.3177 40.1033C44.7572 39.8287 44.2809 39.5487 43.8886 39.2631C43.4963 38.9773 43.1937 38.6748 42.9808 38.3556C42.7679 38.0362 42.6613 37.6749 42.6613 37.2716C42.6613 36.9019 42.7566 36.5686 42.9472 36.2717C43.1378 35.9748 43.4067 35.72 43.7541 35.5071C44.1017 35.2943 44.5275 35.1289 45.0318 35.0113C45.5363 34.8937 46.0966 34.8349 46.7131 34.8349C47.1613 34.8349 47.6349 34.8685 48.1336 34.9357C48.6324 35.0029 49.1339 35.1066 49.6384 35.2466C50.1427 35.3866 50.633 35.5631 51.1094 35.7759C51.5857 35.9888 52.0256 36.2353 52.4291 36.5154V31.4907C51.611 31.177 50.7171 30.9445 49.7476 30.7933C48.7782 30.642 47.6657 30.5664 46.4105 30.5664C45.1327 30.5664 43.9223 30.7037 42.7791 30.9782C41.6359 31.2526 40.63 31.6811 39.7613 32.2637C38.8927 32.8463 38.2062 33.5885 37.7019 34.4904C37.1975 35.3922 36.9453 36.4705 36.9453 37.7253C36.9453 39.3274 37.4077 40.6942 38.3323 41.8258C39.2569 42.9573 40.6607 43.9152 42.5437 44.6995C43.2834 45.002 43.9727 45.2988 44.6116 45.5901C45.2504 45.8814 45.8025 46.1839 46.2675 46.4976C46.7326 46.8113 47.0997 47.153 47.3688 47.5227C47.6378 47.8924 47.7723 48.3125 47.7723 48.7831C47.7723 49.1304 47.6881 49.4525 47.52 49.7494C47.3519 50.0463 47.0969 50.3039 46.7551 50.5224C46.4133 50.7409 45.9873 50.9117 45.4774 51.0349C44.9674 51.1582 44.3706 51.2198 43.6869 51.2198C42.5213 51.2198 41.3669 51.0153 40.2236 50.6064C39.0804 50.1975 38.0212 49.5842 37.0462 48.7663ZM28.0057 35.5166H34.9043V31.1035H15.6758V35.5166H22.5407V55.166H28.0057V35.5166Z" fill="#0A0A0A"/>
</svg>
