<svg width="36" height="36" viewBox="0 0 36 36" fill="none" xmlns="http://www.w3.org/2000/svg">
<path d="M34.5 13.5V22.5H33V25.5H31.5V28.5H30V30H28.5V31.5H27V33H24V34.5H22.5V27H21V25.5H22.5V24H25.5V22.5H27V21H28.5V13.5H27V9H24V10.5H22.5V12H21V10.5H15V12H13.5V10.5H12V9H9V13.5H7.5V21H9V22.5H10.5V24H13.5V27H10.5V25.5H9V24H6V25.5H7.5V28.5H9V30H13.5V34.5H12V33H9V31.5H7.5V30H6V28.5H4.5V25.5H3V22.5H1.5V13.5H3V10.5H4.5V7.5H6V6H7.5V4.5H10.5V3H13.5V1.5H22.5V3H25.5V4.5H28.5V6H30V7.5H31.5V10.5H33V13.5H34.5Z" fill="#FFB857"/>
</svg>